<svg width="10" height="17" viewBox="0 0 10 17" fill="none" xmlns="http://www.w3.org/2000/svg">
<path d="M4.98391 0.82C5.53057 0.82 5.97724 0.993333 6.32391 1.34C6.67057 1.67333 6.84391 2.09333 6.84391 2.6C6.84391 3.12 6.67057 3.54667 6.32391 3.88C5.97724 4.21333 5.53057 4.38 4.98391 4.38C4.43724 4.38 3.98391 4.21333 3.62391 3.88C3.27724 3.53333 3.10391 3.10667 3.10391 2.6C3.10391 2.09333 3.27724 1.67333 3.62391 1.34C3.98391 0.993333 4.43724 0.82 4.98391 0.82ZM6.88391 14.84H9.60391V17H0.723906V14.84H3.72391V8.54H0.823906V6.38H6.88391V14.84Z" fill="black"/>
</svg>
