<svg width="80" height="80" viewBox="0 0 80 80" fill="none" xmlns="http://www.w3.org/2000/svg">
<circle cx="40" cy="40" r="40" fill="black"/>
<path d="M26.2113 28.4299C26.3369 28.2758 26.4919 28.1482 26.6672 28.0546C26.8426 27.9609 27.0348 27.9031 27.2327 27.8843C27.4306 27.8656 27.6303 27.8864 27.8201 27.9455C28.0098 28.0046 28.186 28.1009 28.3383 28.2286C28.4906 28.3564 28.6159 28.5132 28.7071 28.6898C28.7983 28.8665 28.8534 29.0595 28.8693 29.2576C28.8853 29.4558 28.8616 29.6551 28.7999 29.8441C28.7381 30.033 28.6394 30.2078 28.5094 30.3582C23.1731 36.7178 23.9987 46.1544 30.3582 51.4907C36.7178 56.827 46.1544 56.0013 51.4907 49.6418C56.827 43.2822 56.0014 33.8456 49.6419 28.5094C46.9418 26.2438 43.6879 25.0966 40.4268 25.0068L41.1889 29.2489L31.2171 24.7978L39.1154 17.7185L39.8893 22.024C44.0131 21.9979 48.1711 23.359 51.5702 26.2112C59.1718 32.5897 60.1673 43.9685 53.7888 51.5701C47.4103 59.1718 36.0315 60.1673 28.4299 53.7888C20.8283 47.4103 19.8328 36.0315 26.2113 28.4299Z" fill="#F2EFE5"/>
</svg>
