<svg width="20" height="20" viewBox="0 0 20 20" fill="none" xmlns="http://www.w3.org/2000/svg">
<path d="M10 0C9.57538 0 9.23077 0.344615 9.23077 0.769231V0.901442C9.23077 1.26913 8.97185 1.59719 8.60877 1.65565C8.43262 1.68411 8.25825 1.71708 8.08594 1.75631C7.72901 1.83785 7.36807 1.63577 7.22807 1.29808L7.17698 1.17788C7.01468 0.785577 6.56495 0.598642 6.17188 0.761719C5.77957 0.924026 5.59263 1.37375 5.75571 1.76683L5.80679 1.89002C5.94833 2.22849 5.83514 2.62917 5.52284 2.82302C5.37207 2.91686 5.22498 3.01518 5.08113 3.11749C4.78267 3.33056 4.36981 3.28207 4.11058 3.02284L4.01743 2.92969C3.71666 2.62892 3.22969 2.62892 2.92969 2.92969C2.62969 3.23046 2.62969 3.71743 2.92969 4.01743L3.02284 4.11058C3.28207 4.36981 3.33056 4.7819 3.11749 5.08113C3.01518 5.22498 2.91686 5.37207 2.82302 5.52284C2.62917 5.83514 2.22775 5.94906 1.88852 5.80829L1.76683 5.75721C1.37452 5.5949 0.923293 5.78107 0.760216 6.17338C0.597909 6.56569 0.784075 7.01541 1.17638 7.17849L1.29657 7.22807C1.63427 7.36807 1.83785 7.72901 1.75631 8.08594C1.71708 8.25825 1.68261 8.43262 1.65415 8.60877C1.59645 8.97108 1.26913 9.23077 0.901442 9.23077H0.769231C0.344615 9.23077 0 9.57538 0 10C0 10.4246 0.344615 10.7692 0.769231 10.7692H0.901442C1.26913 10.7692 1.59719 11.0281 1.65565 11.3912C1.68411 11.5674 1.71708 11.7418 1.75631 11.9141C1.83785 12.271 1.63577 12.6319 1.29808 12.7719L1.17788 12.823C0.785577 12.9853 0.598642 13.435 0.761719 13.8281C0.924026 14.2204 1.37375 14.4074 1.76683 14.2443L1.89002 14.1932C2.22925 14.0524 2.6299 14.1656 2.82452 14.4772C2.91837 14.6279 3.01591 14.7758 3.11899 14.9204C3.33207 15.2188 3.28357 15.6317 3.02434 15.8909L2.92969 15.9841C2.62892 16.2848 2.62892 16.7718 2.92969 17.0718C3.23046 17.3718 3.71743 17.3726 4.01743 17.0718L4.11208 16.9787C4.37131 16.7194 4.78267 16.6694 5.08113 16.8825C5.22575 16.9856 5.37357 17.0846 5.52434 17.1785C5.83588 17.3723 5.95057 17.7738 5.8098 18.113L5.75871 18.2347C5.59641 18.627 5.78257 19.0782 6.17488 19.2413C6.56719 19.4036 7.01691 19.2174 7.17999 18.8251L7.22957 18.7049C7.36957 18.3672 7.73052 18.1637 8.08744 18.2452C8.25975 18.2844 8.43412 18.3189 8.61028 18.3474C8.97105 18.4035 9.23077 18.7309 9.23077 19.0986V19.2308C9.23077 19.6554 9.57538 20 10 20C10.4246 20 10.7692 19.6554 10.7692 19.2308V19.0986C10.7692 18.7309 11.0281 18.4028 11.3912 18.3444C11.5674 18.3159 11.7418 18.2829 11.9141 18.2437C12.271 18.1622 12.6319 18.3642 12.7719 18.7019L12.823 18.8221C12.9853 19.2144 13.435 19.4014 13.8281 19.2383C14.2204 19.076 14.4074 18.6263 14.2443 18.2332L14.1932 18.11C14.0524 17.7707 14.1656 17.3701 14.4772 17.1755C14.6279 17.0816 14.7758 16.9841 14.9204 16.881C15.2188 16.6679 15.6317 16.7164 15.8909 16.9757L15.9841 17.0703C16.2848 17.3711 16.7718 17.3711 17.0718 17.0703C17.3718 16.7695 17.3726 16.2826 17.0718 15.9826L16.9787 15.8879C16.7194 15.6287 16.6694 15.2173 16.8825 14.9189C16.9856 14.7743 17.0846 14.6264 17.1785 14.4757C17.3723 14.1641 17.7738 14.0494 18.113 14.1902L18.2347 14.2413C18.627 14.4036 19.0782 14.2174 19.2413 13.8251C19.4036 13.4328 19.2174 12.9831 18.8251 12.82L18.7049 12.7704C18.3672 12.6304 18.1637 12.2695 18.2452 11.9126C18.2844 11.7403 18.3189 11.5659 18.3474 11.3897C18.4035 11.029 18.7309 10.7692 19.0986 10.7692H19.2308C19.6554 10.7692 20 10.4246 20 10C20 9.57538 19.6554 9.23077 19.2308 9.23077H19.0986C18.7309 9.23077 18.4028 8.97185 18.3444 8.60877C18.3159 8.43262 18.2829 8.25825 18.2437 8.08594C18.1622 7.72901 18.3642 7.36807 18.7019 7.22807L18.8221 7.17698C19.2144 7.01468 19.4014 6.56495 19.2383 6.17188C19.076 5.77957 18.6263 5.59263 18.2332 5.75571L18.11 5.80679C17.7707 5.94756 17.3701 5.83438 17.1755 5.52284C17.0816 5.37207 16.9841 5.22424 16.881 5.07963C16.6679 4.78117 16.7164 4.36831 16.9757 4.10907L17.0703 4.01593C17.3711 3.71516 17.3711 3.22819 17.0703 2.92819C16.7695 2.62742 16.2826 2.62742 15.9826 2.92819L15.8894 3.02284C15.6302 3.28207 15.2173 3.33207 14.9189 3.11899C14.7743 3.01591 14.6264 2.91686 14.4757 2.82302C14.1641 2.62917 14.0509 2.22775 14.1917 1.88852L14.2428 1.76683C14.4051 1.37452 14.2189 0.923293 13.8266 0.760216C13.4343 0.597909 12.9846 0.784075 12.8215 1.17638L12.7704 1.29657C12.6304 1.63427 12.2695 1.83785 11.9126 1.75631C11.7403 1.71708 11.5659 1.68261 11.3897 1.65415C11.0282 1.59645 10.7692 1.26913 10.7692 0.901442V0.769231C10.7692 0.344615 10.4246 0 10 0ZM10 3.84615C13.1374 3.84615 15.722 6.19606 16.1013 9.23077H11.3296C11.1948 8.99729 11.001 8.80334 10.7677 8.66833C10.5343 8.53333 10.2696 8.46202 10 8.46154C9.9995 8.46154 9.999 8.46154 9.9985 8.46154L7.61268 4.32692C8.34692 4.01748 9.15324 3.84615 10 3.84615ZM6.28456 5.10216L8.66887 9.23077C8.53342 9.46453 8.46191 9.72983 8.46154 10C8.46243 10.2691 8.53393 10.5334 8.66887 10.7662L6.28305 14.8963C4.80494 13.7723 3.84615 12.0001 3.84615 10C3.84615 7.99919 4.80549 6.22612 6.28456 5.10216ZM11.3311 10.7692H16.1013C15.722 13.8039 13.1374 16.1538 10 16.1538C9.15324 16.1538 8.34692 15.9825 7.61268 15.6731L9.9985 11.5385C9.999 11.5385 9.9995 11.5385 10 11.5385C10.2699 11.5382 10.5349 11.4671 10.7685 11.332C11.0022 11.197 11.1962 11.0029 11.3311 10.7692Z" fill="black"/>
</svg>
